Normalized EMG Linear Envelopes
nRows=112
nColumns=4

endheader
time	 med_gas_r	  soleus_r	 tib_ant_r	
4.0625	  0.005976	  0.004742	  0.000889	
4.125	  0.006399	  0.004939	  0.001402	
4.1875	  0.006784	  0.005055	  0.001732	
4.25	  0.007076	  0.005088	  0.001854	
4.3125	  0.007314	  0.005090	  0.001851	
4.375	  0.007583	  0.005107	  0.001796	
4.4375	  0.007809	  0.005174	  0.001721	
4.5	  0.007760	  0.005305	  0.001649	
4.5625	  0.007330	  0.005440	  0.001589	
4.625	  0.006730	  0.005466	  0.001546	
4.6875	  0.006322	  0.005342	  0.001537	
4.75	  0.006269	  0.005159	  0.001572	
4.8125	  0.006426	  0.005033	  0.001639	
4.875	  0.006596	  0.005027	  0.001715	
4.9375	  0.006789	  0.005173	  0.001784	
5	  0.007131	  0.005462	  0.001833	
5.0625	  0.007610	  0.005846	  0.001865	
5.125	  0.008055	  0.006225	  0.001880	
5.1875	  0.008320	  0.006313	  0.001838	
5.25	  0.008279	  0.005433	  0.001635	
5.3125	  0.007570	  0.002550	  0.001166	
5.375	  0.005610	 -0.003058	  0.000473	
5.4375	  0.002067	 -0.010151	 -0.000049	
5.5	 -0.002210	 -0.013181	  0.000551	
5.5625	 -0.003633	 -0.000557	  0.003796	
5.625	  0.005429	  0.044232	  0.011207	
5.6875	  0.035492	  0.133235	  0.022787	
5.75	  0.095393	  0.255180	  0.035776	
5.8125	  0.185909	  0.368854	  0.046040	
5.875	  0.294636	  0.430213	  0.051104	
5.9375	  0.397569	  0.424780	  0.051096	
6	  0.469450	  0.366066	  0.047521	
6.0625	  0.495512	  0.277452	  0.042685	
6.125	  0.479199	  0.185346	  0.039489	
6.1875	  0.445028	  0.113485	  0.039604	
6.25	  0.427058	  0.073624	  0.041787	
6.3125	  0.443417	  0.063996	  0.043684	
6.375	  0.483939	  0.074107	  0.044650	
6.4375	  0.524531	  0.090898	  0.045158	
6.5	  0.547702	  0.105498	  0.044952	
6.5625	  0.551542	  0.115696	  0.043334	
6.625	  0.547025	  0.122001	  0.040066	
6.6875	  0.546875	  0.123413	  0.035559	
6.75	  0.552830	  0.118328	  0.030786	
6.8125	  0.553493	  0.108489	  0.026847	
6.875	  0.540489	  0.100988	  0.024571	
6.9375	  0.527582	  0.104440	  0.024663	
7	  0.541324	  0.121088	  0.027587	
7.0625	  0.587990	  0.144651	  0.032770	
7.125	  0.642800	  0.166929	  0.038432	
7.1875	  0.676988	  0.184652	  0.042944	
7.25	  0.685930	  0.201328	  0.046314	
7.3125	  0.687490	  0.222498	  0.049858	
7.375	  0.698191	  0.247611	  0.054453	
7.4375	  0.714772	  0.271436	  0.059406	
7.5	  0.721466	  0.292887	  0.062830	
7.5625	  0.713078	  0.312473	  0.063023	
7.625	  0.702389	  0.325956	  0.060096	
7.6875	  0.702256	  0.331991	  0.056273	
7.75	  0.707782	  0.336867	  0.053868	
7.8125	  0.704171	  0.345088	  0.053264	
7.875	  0.689910	  0.356651	  0.053633	
7.9375	  0.678524	  0.372995	  0.054655	
8	  0.677464	  0.395272	  0.056662	
8.0625	  0.682213	  0.420067	  0.059938	
8.125	  0.689045	  0.442001	  0.064169	
8.1875	  0.699203	  0.458869	  0.068055	
8.25	  0.712783	  0.475604	  0.070085	
8.3125	  0.725200	  0.502637	  0.070150	
8.375	  0.730164	  0.542795	  0.069468	
8.4375	  0.725582	  0.583156	  0.069131	
8.5	  0.715542	  0.611378	  0.069647	
8.5625	  0.705306	  0.632238	  0.071217	
8.625	  0.695322	  0.655942	  0.073432	
8.6875	  0.683029	  0.680508	  0.074994	
8.75	  0.667876	  0.696197	  0.074674	
8.8125	  0.652356	  0.696700	  0.072775	
8.875	  0.642744	  0.679551	  0.070770	
8.9375	  0.645734	  0.652478	  0.069507	
9	  0.659420	  0.636386	  0.068641	
9.0625	  0.672022	  0.636300	  0.067327	
9.125	  0.669781	  0.627423	  0.064693	
9.1875	  0.645400	  0.592043	  0.060360	
9.25	  0.605542	  0.539828	  0.055165	
9.3125	  0.570705	  0.485712	  0.050855	
9.375	  0.561075	  0.437075	  0.048910	
9.4375	  0.579860	  0.397335	  0.049901	
9.5	  0.609306	  0.367690	  0.053116	
9.5625	  0.623627	  0.348377	  0.056285	
9.625	  0.611135	  0.336058	  0.056998	
9.6875	  0.582845	  0.322183	  0.055135	
9.75	  0.556549	  0.301852	  0.052649	
9.8125	  0.539387	  0.280755	  0.050986	
9.875	  0.526640	  0.266143	  0.050033	
9.9375	  0.508435	  0.255313	  0.048771	
10	  0.477966	  0.239615	  0.045681	
10.0625	  0.437477	  0.214334	  0.039878	
10.125	  0.395033	  0.180953	  0.032567	
10.1875	  0.356117	  0.144461	  0.025943	
10.25	  0.319290	  0.109512	  0.020872	
10.3125	  0.277944	  0.078986	  0.016847	
10.375	  0.226277	  0.054936	  0.013312	
10.4375	  0.165642	  0.037520	  0.010162	
10.5	  0.105514	  0.024957	  0.007564	
10.5625	  0.057331	  0.016437	  0.005696	
10.625	  0.026810	  0.012698	  0.004546	
10.6875	  0.011896	  0.013778	  0.003897	
10.75	  0.006778	  0.017653	  0.003488	
10.8125	  0.006201	  0.021768	  0.003153	
10.875	  0.006800	  0.026123	  0.002827	
10.9375	  0.006974	  0.033006	  0.002471	
11	  0.006354	  0.042847	  0.002069	
